<svg width="72" height="72" viewBox="0 0 72 72" fill="none" xmlns="http://www.w3.org/2000/svg">
<path d="M35.9432 57.2701C35.3145 57.2701 34.8001 56.7557 34.8001 56.127V46.9822C34.8001 46.9708 34.8001 46.9593 34.8001 46.9479C32.3425 46.8222 29.9077 46.3421 27.5758 45.519L23.2548 54.3438C22.9805 54.9153 22.2946 55.1439 21.7231 54.8696C21.323 54.6753 21.0829 54.2638 21.0829 53.8408C21.0829 53.6693 21.1172 53.4979 21.1973 53.3378L25.4496 44.6731C24.2265 44.1245 23.0376 43.4729 21.8945 42.7299C20.9915 42.1469 20.1227 41.5068 19.2883 40.8095L12.7726 47.7709C12.3382 48.2282 11.6181 48.251 11.1608 47.8281C10.9208 47.5995 10.795 47.3023 10.795 46.9936C10.795 46.7193 10.8979 46.4335 11.1037 46.2163L17.5851 39.3006C15.3103 37.0944 13.3442 34.4881 11.7895 31.5961C11.6981 31.4246 11.6524 31.2417 11.6524 31.0588V30.9788C11.6524 30.3501 12.1668 29.8357 12.7955 29.8357C13.3213 29.8357 13.7557 30.1901 13.8928 30.6702C16.179 34.8539 19.3683 38.3518 23.1405 40.8095C27.0614 43.3586 31.5309 44.696 36.0804 44.696C40.6414 44.696 45.1223 43.3471 49.0432 40.7866C52.8154 38.3289 56.0161 34.8082 58.2909 30.613C58.428 30.1329 58.8624 29.7785 59.3882 29.7785C60.0169 29.7785 60.5313 30.2929 60.5313 30.9216V30.9788C60.5313 31.1617 60.4856 31.356 60.3942 31.5161C58.7595 34.591 56.6562 37.3344 54.21 39.6206L60.7599 46.1706C60.9886 46.3992 61.0914 46.685 61.0914 46.9822C61.0914 47.2794 60.9771 47.5652 60.7599 47.7938C60.3141 48.2396 59.594 48.2396 59.1482 47.7938L52.4839 41.1295C51.7752 41.6896 51.0436 42.2155 50.3006 42.707C49.1346 43.4615 47.9344 44.1245 46.6884 44.6846L50.7121 53.3607C50.7807 53.5207 50.815 53.6808 50.815 53.8408C50.815 54.2752 50.5749 54.6867 50.152 54.881C49.5804 55.1439 48.8946 54.8925 48.6317 54.3209L44.5508 45.5305C42.1388 46.3764 39.6355 46.8565 37.0863 46.9593C37.0863 46.9708 37.0863 46.9708 37.0863 46.9822V56.127C37.0863 56.7557 36.5719 57.2701 35.9432 57.2701ZM18.751 24.3145C18.4424 24.3145 18.1452 24.1888 17.9166 23.9487C17.4822 23.4915 17.505 22.7599 17.9737 22.337C23.0491 17.5931 29.4847 14.9754 36.1033 14.9754C42.6875 14.9754 49.1118 17.5702 54.1643 22.2684C54.6215 22.7028 54.6558 23.4229 54.2214 23.8802C53.787 24.3374 53.0669 24.3717 52.6096 23.9373C47.9801 19.6393 42.116 17.2616 36.1033 17.2616C30.0677 17.2616 24.1807 19.6621 19.5283 24.0059C19.3111 24.2117 19.0368 24.3145 18.751 24.3145Z" fill="#757470"/>
</svg>
