<svg width="34" height="33" viewBox="0 0 34 33" fill="none" xmlns="http://www.w3.org/2000/svg">
<g clip-path="url(#clip0_0_942)">
<rect width="33" height="32" transform="translate(0.5 0.669922)" fill="white"/>
<path d="M7.40909 0.669922C5.50909 0.669922 3.95455 2.23514 3.95455 4.14818C3.95455 6.06123 5.50909 7.62644 7.40909 7.62644C9.30909 7.62644 10.8636 6.06123 10.8636 4.14818C10.8636 2.23514 9.30909 0.669922 7.40909 0.669922ZM7.40909 2.06123C8.56151 2.06123 9.48182 2.98786 9.48182 4.14818C9.48182 5.30851 8.56151 6.23514 7.40909 6.23514C6.25668 6.23514 5.33636 5.30851 5.33636 4.14818C5.33636 2.98786 6.25668 2.06123 7.40909 2.06123ZM7.40909 8.3221C3.60099 8.3221 0.5 11.4444 0.5 15.2786V22.0096L2.93168 22.9879L3.43636 32.6699H11.3818L11.8865 22.9879L14.3182 22.0096V15.2786C14.3182 11.4444 11.2172 8.3221 7.40909 8.3221ZM7.40909 9.7134C10.4696 9.7134 12.9364 12.1971 12.9364 15.2786V21.0694L10.5533 22.0286L10.0702 31.2786H4.74801L4.26491 22.0286L1.88182 21.0694V15.2786C1.88182 12.1971 4.34858 9.7134 7.40909 9.7134Z" fill="#BCBAB8"/>
<path d="M26.3178 0.669922C24.4178 0.669922 22.8632 2.23514 22.8632 4.14818C22.8632 6.06123 24.4178 7.62644 26.3178 7.62644C28.2178 7.62644 29.7723 6.06123 29.7723 4.14818C29.7723 2.23514 28.2178 0.669922 26.3178 0.669922ZM26.3178 2.06123C27.4702 2.06123 28.3905 2.98786 28.3905 4.14818C28.3905 5.30851 27.4702 6.23514 26.3178 6.23514C25.1654 6.23514 24.2451 5.30851 24.2451 4.14818C24.2451 2.98786 25.1654 2.06123 26.3178 2.06123ZM26.3178 8.3221C22.5097 8.3221 19.4087 11.4444 19.4087 15.2786V22.0096L21.8404 22.9879L22.3451 32.6699H30.2905L30.7952 22.9879L33.2269 22.0096V15.2786C33.2269 11.4444 30.1259 8.3221 26.3178 8.3221ZM26.3178 9.7134C29.3783 9.7134 31.8451 12.1971 31.8451 15.2786V21.0694L29.462 22.0286L28.9789 31.2786H23.6567L23.1736 22.0286L20.7905 21.0694V15.2786C20.7905 12.1971 23.2573 9.7134 26.3178 9.7134Z" fill="#BCBAB8"/>
</g>
<defs>
<clipPath id="clip0_0_942">
<rect width="33" height="32" fill="white" transform="translate(0.5 0.669922)"/>
</clipPath>
</defs>
</svg>
