<svg width="72" height="37" viewBox="0 0 72 37" fill="none" xmlns="http://www.w3.org/2000/svg">
<g clip-path="url(#clip0_0_948)">
<rect width="72" height="36" transform="translate(0 0.669922)" fill="white"/>
<path d="M7.5 4.33997C5.575 4.33997 4 5.90518 4 7.81823C4 9.73127 5.575 11.2965 7.5 11.2965C9.425 11.2965 11 9.73127 11 7.81823C11 5.90518 9.425 4.33997 7.5 4.33997ZM7.5 5.73127C8.66758 5.73127 9.6 6.6579 9.6 7.81823C9.6 8.97855 8.66758 9.90518 7.5 9.90518C6.33242 9.90518 5.4 8.97855 5.4 7.81823C5.4 6.6579 6.33242 5.73127 7.5 5.73127ZM7.5 11.9921C3.6418 11.9921 0.5 15.1144 0.5 18.9487V25.6796L2.96367 26.6579L3.475 36.34H11.525L12.0363 26.6579L14.5 25.6796V18.9487C14.5 15.1144 11.3582 11.9921 7.5 11.9921ZM7.5 13.3834C10.6008 13.3834 13.1 15.8671 13.1 18.9487V24.7394L10.6855 25.6987L10.1961 34.9487H4.80391L4.31445 25.6987L1.9 24.7394V18.9487C1.9 15.8671 4.39922 13.3834 7.5 13.3834Z" fill="#BCBAB8"/>
<path d="M26.5 4.33997C24.575 4.33997 23 5.90518 23 7.81823C23 9.73127 24.575 11.2965 26.5 11.2965C28.425 11.2965 30 9.73127 30 7.81823C30 5.90518 28.425 4.33997 26.5 4.33997ZM26.5 5.73127C27.6676 5.73127 28.6 6.6579 28.6 7.81823C28.6 8.97855 27.6676 9.90518 26.5 9.90518C25.3324 9.90518 24.4 8.97855 24.4 7.81823C24.4 6.6579 25.3324 5.73127 26.5 5.73127ZM26.5 11.9921C22.6418 11.9921 19.5 15.1144 19.5 18.9487V25.6796L21.9637 26.6579L22.475 36.34H30.525L31.0363 26.6579L33.5 25.6796V18.9487C33.5 15.1144 30.3582 11.9921 26.5 11.9921ZM26.5 13.3834C29.6008 13.3834 32.1 15.8671 32.1 18.9487V24.7394L29.6855 25.6987L29.1961 34.9487H23.8039L23.3145 25.6987L20.9 24.7394V18.9487C20.9 15.8671 23.3992 13.3834 26.5 13.3834Z" fill="#BCBAB8"/>
<path d="M45.5 4.33997C43.575 4.33997 42 5.90518 42 7.81823C42 9.73127 43.575 11.2965 45.5 11.2965C47.425 11.2965 49 9.73127 49 7.81823C49 5.90518 47.425 4.33997 45.5 4.33997ZM45.5 5.73127C46.6676 5.73127 47.6 6.6579 47.6 7.81823C47.6 8.97855 46.6676 9.90518 45.5 9.90518C44.3324 9.90518 43.4 8.97855 43.4 7.81823C43.4 6.6579 44.3324 5.73127 45.5 5.73127ZM45.5 11.9921C41.6418 11.9921 38.5 15.1144 38.5 18.9487V25.6796L40.9637 26.6579L41.475 36.34H49.525L50.0363 26.6579L52.5 25.6796V18.9487C52.5 15.1144 49.3582 11.9921 45.5 11.9921ZM45.5 13.3834C48.6008 13.3834 51.1 15.8671 51.1 18.9487V24.7394L48.6855 25.6987L48.1961 34.9487H42.8039L42.3145 25.6987L39.9 24.7394V18.9487C39.9 15.8671 42.3992 13.3834 45.5 13.3834Z" fill="#BCBAB8"/>
<path d="M64.5 4.33997C62.575 4.33997 61 5.90518 61 7.81823C61 9.73127 62.575 11.2965 64.5 11.2965C66.425 11.2965 68 9.73127 68 7.81823C68 5.90518 66.425 4.33997 64.5 4.33997ZM64.5 5.73127C65.6676 5.73127 66.6 6.6579 66.6 7.81823C66.6 8.97855 65.6676 9.90518 64.5 9.90518C63.3324 9.90518 62.4 8.97855 62.4 7.81823C62.4 6.6579 63.3324 5.73127 64.5 5.73127ZM64.5 11.9921C60.6418 11.9921 57.5 15.1144 57.5 18.9487V25.6796L59.9637 26.6579L60.475 36.34H68.525L69.0363 26.6579L71.5 25.6796V18.9487C71.5 15.1144 68.3582 11.9921 64.5 11.9921ZM64.5 13.3834C67.6008 13.3834 70.1 15.8671 70.1 18.9487V24.7394L67.6855 25.6987L67.1961 34.9487H61.8039L61.3145 25.6987L58.9 24.7394V18.9487C58.9 15.8671 61.3992 13.3834 64.5 13.3834Z" fill="#BCBAB8"/>
<path fill-rule="evenodd" clip-rule="evenodd" d="M13.5 4.81823C13.5 2.90518 15.075 1.33997 17 1.33997C18.925 1.33997 20.5 2.90518 20.5 4.81823C20.5 6.73127 18.925 8.29649 17 8.29649C15.075 8.29649 13.5 6.73127 13.5 4.81823ZM19.1 4.81823C19.1 3.6579 18.1676 2.73127 17 2.73127C15.8324 2.73127 14.9 3.6579 14.9 4.81823C14.9 5.97855 15.8324 6.90518 17 6.90518C18.1676 6.90518 19.1 5.97855 19.1 4.81823Z" fill="#BCBAB8"/>
<path fill-rule="evenodd" clip-rule="evenodd" d="M31.5 4.81823C31.5 2.90518 33.075 1.33997 35 1.33997C36.925 1.33997 38.5 2.90518 38.5 4.81823C38.5 6.73127 36.925 8.29649 35 8.29649C33.075 8.29649 31.5 6.73127 31.5 4.81823ZM37.1 4.81823C37.1 3.6579 36.1676 2.73127 35 2.73127C33.8324 2.73127 32.9 3.6579 32.9 4.81823C32.9 5.97855 33.8324 6.90518 35 6.90518C36.1676 6.90518 37.1 5.97855 37.1 4.81823Z" fill="#BCBAB8"/>
<path fill-rule="evenodd" clip-rule="evenodd" d="M51.5 4.81823C51.5 2.90518 53.075 1.33997 55 1.33997C56.925 1.33997 58.5 2.90518 58.5 4.81823C58.5 6.73127 56.925 8.29649 55 8.29649C53.075 8.29649 51.5 6.73127 51.5 4.81823ZM57.1 4.81823C57.1 3.6579 56.1676 2.73127 55 2.73127C53.8324 2.73127 52.9 3.6579 52.9 4.81823C52.9 5.97855 53.8324 6.90518 55 6.90518C56.1676 6.90518 57.1 5.97855 57.1 4.81823Z" fill="#BCBAB8"/>
</g>
<defs>
<clipPath id="clip0_0_948">
<rect width="72" height="36" fill="white" transform="translate(0 0.669922)"/>
</clipPath>
</defs>
</svg>
