<svg width="72" height="72" viewBox="0 0 72 72" fill="none" xmlns="http://www.w3.org/2000/svg">
<path d="M23.9363 11.7804C21.0075 11.7804 18.6113 14.1766 18.6113 17.1054C18.6113 20.0341 21.0075 22.4304 23.9363 22.4304C26.865 22.4304 29.2613 20.0341 29.2613 17.1054C29.2613 14.1766 26.865 11.7804 23.9363 11.7804ZM46.3013 11.7804C43.3725 11.7804 40.9763 14.1766 40.9763 17.1054C40.9763 20.0341 43.3725 22.4304 46.3013 22.4304C49.23 22.4304 51.6263 20.0341 51.6263 17.1054C51.6263 14.1766 49.23 11.7804 46.3013 11.7804ZM23.9363 13.9104C25.7127 13.9104 27.1313 15.329 27.1313 17.1054C27.1313 18.8818 25.7127 20.3004 23.9363 20.3004C22.1599 20.3004 20.7413 18.8818 20.7413 17.1054C20.7413 15.329 22.1599 13.9104 23.9363 13.9104ZM46.3013 13.9104C48.0777 13.9104 49.4963 15.329 49.4963 17.1054C49.4963 18.8818 48.0777 20.3004 46.3013 20.3004C44.5249 20.3004 43.1063 18.8818 43.1063 17.1054C43.1063 15.329 44.5249 13.9104 46.3013 13.9104ZM19.1438 23.4954C15.9238 23.4954 13.2863 26.1329 13.2863 29.3529V42.4657C13.2779 42.5323 13.2779 42.5988 13.2863 42.6654C13.2821 42.7652 13.2946 42.8692 13.3196 42.9649C13.4776 44.5749 14.8338 45.8604 16.4813 45.8604C16.8557 45.8604 17.2093 45.7814 17.5463 45.6607V57.9415C17.5463 59.4974 18.8193 60.7704 20.3752 60.7704H22.1724C22.8588 60.7704 23.4412 60.4501 23.9363 60.0382C24.4313 60.4501 25.0138 60.7704 25.7002 60.7704H27.4974C29.0533 60.7704 30.3263 59.4974 30.3263 57.9415V50.9857C30.6632 51.1064 31.0169 51.1854 31.3913 51.1854V58.1079C31.3913 59.564 32.5977 60.7704 34.0538 60.7704H37.2488C38.7048 60.7704 39.9113 59.564 39.9113 58.1079V51.1854C40.2857 51.1854 40.6393 51.1064 40.9763 50.9857V57.5754C40.9763 59.3268 42.4198 60.7704 44.1713 60.7704C44.9867 60.7704 45.7355 60.4501 46.3013 59.9384C46.8671 60.4501 47.6159 60.7704 48.4313 60.7704C50.1827 60.7704 51.6263 59.3268 51.6263 57.5754V49.0554H54.3886C55.0875 49.0554 55.749 48.6935 56.1192 48.1235C56.1192 48.111 56.1192 48.1027 56.1192 48.0902C56.4895 47.5161 56.5727 46.8297 56.3855 46.1932C56.3855 46.1807 56.3855 46.1724 56.3855 46.1599L55.9528 44.7954C57.0303 44.7954 58.0038 44.2712 58.5155 43.4309C59.0272 42.5905 59.1062 41.5422 58.7817 40.5354C57.8041 37.5151 54.4885 27.4226 54.4885 27.4226C54.2888 26.8069 53.9144 25.8958 53.1239 25.0596C52.3335 24.2234 51.0855 23.4954 49.4963 23.4954H47.4328C47.412 23.4954 47.3871 23.4954 47.3663 23.4954H43.1063C41.5129 23.4954 40.269 24.2234 39.4786 25.0596C39.0751 25.4923 39.0959 26.1704 39.5285 26.5739C39.9612 26.9774 40.6393 26.9566 41.0428 26.524C41.5254 26.0081 42.1203 25.6254 43.1063 25.6254H47.3663C47.3996 25.6254 47.4328 25.6254 47.4661 25.6254H49.4963C50.4781 25.6254 51.0771 26.0123 51.5597 26.524C52.0423 27.0357 52.3709 27.7096 52.4916 28.0882C52.4916 28.0882 55.774 38.1558 56.7516 41.1677C56.9222 41.6919 56.8514 42.083 56.7183 42.2993C56.5852 42.5156 56.4105 42.6654 55.9528 42.6654C55.5119 42.6654 55.1291 42.3783 54.9877 41.9998C54.9835 41.9915 54.9918 41.9748 54.9877 41.9665C54.971 41.8625 54.9378 41.7626 54.8878 41.667L51.9258 32.7476C51.7677 32.2525 51.2768 31.9405 50.761 32.0154C50.4448 32.057 50.1661 32.24 49.9997 32.5105C49.8291 32.7809 49.7916 33.1137 49.8956 33.4132L52.891 42.3991C52.9118 42.4907 52.945 42.5822 52.9908 42.6654L54.3553 46.8256V46.8588C54.3595 46.8921 54.3262 46.9088 54.3221 46.9254H46.3678C46.347 46.9254 46.3221 46.9254 46.3013 46.9254H43.1063V40.5354C43.1063 38.1932 41.1884 36.2754 38.8463 36.2754H32.4563C30.1141 36.2754 28.1963 38.1932 28.1963 40.5354V42.499C28.1963 42.5323 28.1963 42.5656 28.1963 42.5988V57.9415C28.1963 58.3492 27.9009 58.6404 27.4974 58.6404H25.7002C25.2925 58.6404 25.0013 58.3492 25.0013 57.9415V44.4293C25.0054 44.1215 24.8723 43.8302 24.6435 43.6264C24.4147 43.4225 24.1068 43.3269 23.8031 43.3643C23.2665 43.4309 22.8671 43.8885 22.8713 44.4293V57.9415C22.8713 58.3492 22.5759 58.6404 22.1724 58.6404H20.3752C19.9675 58.6404 19.6763 58.3492 19.6763 57.9415V32.0154C19.6888 31.7075 19.5639 31.4122 19.3435 31.2042C19.1188 30.992 18.8151 30.888 18.5114 30.9171C18.4657 30.9254 18.4199 30.9379 18.3783 30.9504C17.8832 31.0627 17.5338 31.5079 17.5463 32.0154V42.499C17.5463 42.5323 17.5463 42.5656 17.5463 42.5988V42.6654C17.5463 43.2686 17.0845 43.7304 16.4813 43.7304C15.903 43.7304 15.4496 43.3019 15.4163 42.732C15.4163 42.7112 15.4163 42.6862 15.4163 42.6654C15.4246 42.5988 15.4246 42.5323 15.4163 42.4657V29.3529C15.4163 27.2895 17.0762 25.6254 19.1438 25.6254H28.7288C29.5275 25.6254 30.2556 25.8667 30.8588 26.291C31.1666 26.549 31.591 26.6114 31.9571 26.4533C32.3273 26.2952 32.5769 25.9457 32.6019 25.5464C32.631 25.147 32.4313 24.7684 32.0902 24.5604C31.1417 23.8948 29.9727 23.4954 28.7288 23.4954H19.1438ZM35.6513 26.6904C33.3091 26.6904 31.3913 28.6082 31.3913 30.9504C31.3913 33.2926 33.3091 35.2104 35.6513 35.2104C37.9934 35.2104 39.9113 33.2926 39.9113 30.9504C39.9113 28.6082 37.9934 26.6904 35.6513 26.6904ZM35.6513 28.8204C36.8411 28.8204 37.7813 29.7606 37.7813 30.9504C37.7813 32.1402 36.8411 33.0804 35.6513 33.0804C34.4615 33.0804 33.5213 32.1402 33.5213 30.9504C33.5213 29.7606 34.4615 28.8204 35.6513 28.8204ZM32.4563 38.4054H38.8463C40.0361 38.4054 40.9763 39.3456 40.9763 40.5354V47.7907C40.9763 47.824 40.9763 47.8573 40.9763 47.8906V47.9904C40.9763 48.5936 40.5145 49.0554 39.9113 49.0554H38.8463C38.2597 49.0554 37.7813 49.5338 37.7813 50.1204V58.1079C37.7813 58.4116 37.5525 58.6404 37.2488 58.6404H34.0538C33.7501 58.6404 33.5213 58.4116 33.5213 58.1079V50.1204C33.5213 49.5338 33.0429 49.0554 32.4563 49.0554H31.3913C30.788 49.0554 30.3263 48.5936 30.3263 47.9904V40.5354C30.3263 39.3456 31.2665 38.4054 32.4563 38.4054ZM43.1063 49.0554H45.2363V57.5754C45.2363 58.1786 44.7745 58.6404 44.1713 58.6404C43.5681 58.6404 43.1063 58.1786 43.1063 57.5754V49.0554ZM47.3663 49.0554H49.4963V57.5754C49.4963 58.1786 49.0345 58.6404 48.4313 58.6404C47.8281 58.6404 47.3663 58.1786 47.3663 57.5754V49.0554Z" fill="#757470"/>
</svg>
