<svg width="72" height="72" viewBox="0 0 72 72" fill="none" xmlns="http://www.w3.org/2000/svg">
<path fill-rule="evenodd" clip-rule="evenodd" d="M43.8236 11.5529C44.3069 11.8024 44.5475 12.358 44.3987 12.8812L39.0456 31.7087H50.5956C51.035 31.7087 51.4356 31.9606 51.6259 32.3567C51.8162 32.7527 51.7627 33.2229 51.4881 33.566L29.768 60.7077C29.4254 61.1359 28.827 61.2604 28.3421 61.0045C27.8571 60.7486 27.6222 60.1843 27.7822 59.6599L33.5214 40.8535H21.5231C21.0834 40.8535 20.6827 40.6012 20.4925 40.2048C20.3023 39.8084 20.3563 39.338 20.6315 38.995L42.4076 11.8532C42.748 11.429 43.3402 11.3033 43.8236 11.5529ZM23.9058 38.5673H35.0654C35.4277 38.5673 35.7686 38.739 35.9841 39.0302C36.1997 39.3214 36.2645 39.6975 36.1587 40.044L31.7099 54.6222L48.2168 33.9949H37.5322C37.1738 33.9949 36.8361 33.8267 36.6201 33.5407C36.4041 33.2547 36.3347 32.8839 36.4327 32.5391L40.654 17.6922L23.9058 38.5673Z" fill="#757470"/>
</svg>
