<svg width="72" height="72" viewBox="0 0 72 72" fill="none" xmlns="http://www.w3.org/2000/svg">
<path d="M35.9432 10.0054C34.5143 10.0054 33.2972 10.5824 32.5161 11.461C31.7351 12.3397 31.3708 13.4664 31.3708 14.5778C31.3708 15.6891 31.7351 16.8158 32.5161 17.6945C33.0689 18.3164 33.8901 18.696 34.8001 18.918V31.7243C34.7992 31.8007 34.8059 31.877 34.8202 31.952C33.9177 32.168 33.106 32.5439 32.5496 33.1509C32.4679 33.0704 32.3746 33.0027 32.2728 32.95L19.788 26.0155C19.8782 25.6365 19.9398 25.252 19.9398 24.8657C19.9398 23.7543 19.5755 22.6276 18.7945 21.7489C18.0134 20.8703 16.7963 20.2933 15.3674 20.2933C13.9385 20.2933 12.7214 20.8703 11.9403 21.7489C11.1593 22.6276 10.795 23.7543 10.795 24.8657C10.795 25.977 11.1593 27.1037 11.9403 27.9824C12.7214 28.8611 13.9385 29.4381 15.3674 29.4381C16.7615 29.4381 17.9471 28.8833 18.7297 28.0405L31.1632 34.9482C31.2791 35.016 31.406 35.0628 31.5382 35.0866C31.438 35.4847 31.3708 35.8898 31.3708 36.2967C31.3708 36.7202 31.4407 37.1424 31.5494 37.5559C31.3749 37.5672 31.2054 37.6183 31.0538 37.7055L18.7297 44.5507C17.9471 43.7085 16.7609 43.1553 15.3674 43.1553C13.9385 43.1553 12.7214 43.7323 11.9403 44.6109C11.1593 45.4896 10.795 46.6163 10.795 47.7277C10.795 48.839 11.1593 49.9657 11.9403 50.8444C12.7214 51.7231 13.9385 52.3001 15.3674 52.3001C16.7963 52.3001 18.0134 51.7231 18.7945 50.8444C19.5755 49.9657 19.9398 48.839 19.9398 47.7277C19.9398 47.3423 19.88 46.9582 19.7902 46.5801L32.1656 39.7036C32.3007 39.6314 32.4199 39.5327 32.5161 39.4134C33.0729 40.0398 33.9016 40.4214 34.8202 40.6413C34.8059 40.7164 34.7992 40.7927 34.8001 40.8691V53.6754C33.8901 53.8973 33.0689 54.2769 32.5161 54.8988C31.7351 55.7775 31.3708 56.9042 31.3708 58.0156C31.3708 59.1269 31.7351 60.2536 32.5161 61.1323C33.2972 62.011 34.5143 62.588 35.9432 62.588C37.3721 62.588 38.5892 62.011 39.3703 61.1323C40.1513 60.2536 40.5156 59.1269 40.5156 58.0156C40.5156 56.9042 40.1513 55.7775 39.3703 54.8988C38.8174 54.2769 37.9962 53.8973 37.0863 53.6754V40.8691C37.0872 40.7927 37.0805 40.7164 37.0662 40.6413C37.9802 40.4225 38.8046 40.0432 39.3613 39.4223C39.4523 39.5285 39.5621 39.617 39.685 39.6836L52.0984 46.5779C52.0082 46.9568 51.9466 47.3414 51.9466 47.7277C51.9466 48.839 52.3109 49.9657 53.0919 50.8444C53.873 51.7231 55.0901 52.3001 56.519 52.3001C57.9479 52.3001 59.165 51.7231 59.9461 50.8444C60.7271 49.9657 61.0914 48.839 61.0914 47.7277C61.0914 46.6163 60.7271 45.4896 59.9461 44.6109C59.165 43.7323 57.9479 43.1553 56.519 43.1553C55.1261 43.1553 53.9415 43.7091 53.1589 44.5507L40.7947 37.6854C40.6548 37.6054 40.4996 37.556 40.3392 37.5402C40.4453 37.1316 40.5156 36.715 40.5156 36.2967C40.5156 35.8989 40.4506 35.503 40.3548 35.1134C40.4559 35.0866 40.5528 35.046 40.6428 34.9928L53.1567 28.0427C53.9393 28.8849 55.1255 29.4381 56.519 29.4381C57.9479 29.4381 59.165 28.8611 59.9461 27.9824C60.7271 27.1037 61.0914 25.977 61.0914 24.8657C61.0914 23.7543 60.7271 22.6276 59.9461 21.7489C59.165 20.8703 57.9479 20.2933 56.519 20.2933C55.0901 20.2933 53.873 20.8703 53.0919 21.7489C52.3109 22.6276 51.9466 23.7543 51.9466 24.8657C51.9466 25.252 52.0082 25.6365 52.0984 26.0155L39.5332 32.9946C39.4582 33.0343 39.3878 33.0822 39.3234 33.1375C38.7673 32.5387 37.9618 32.1664 37.0662 31.952C37.0805 31.877 37.0872 31.8007 37.0863 31.7243V18.918C37.9962 18.696 38.8174 18.3164 39.3703 17.6945C40.1513 16.8158 40.5156 15.6891 40.5156 14.5778C40.5156 13.4664 40.1513 12.3397 39.3703 11.461C38.5892 10.5824 37.3721 10.0054 35.9432 10.0054ZM35.9432 12.2916C36.8005 12.2916 37.298 12.5719 37.6601 12.9792C38.0221 13.3865 38.2294 13.9745 38.2294 14.5778C38.2294 15.1811 38.0221 15.769 37.6601 16.1763C37.3051 16.5757 36.8036 16.8399 35.9767 16.8506C35.9536 16.8491 35.9305 16.8484 35.9075 16.8483C35.0829 16.8368 34.5807 16.575 34.2263 16.1763C33.8643 15.769 33.657 15.1811 33.657 14.5778C33.657 13.9745 33.8643 13.3865 34.2263 12.9792C34.5884 12.5719 35.0859 12.2916 35.9432 12.2916ZM15.3674 22.5795C16.2247 22.5795 16.7222 22.8598 17.0843 23.2671C17.4463 23.6744 17.6536 24.2624 17.6536 24.8657C17.6536 25.469 17.4463 26.0569 17.0843 26.4642C16.7222 26.8715 16.2247 27.1519 15.3674 27.1519C14.5101 27.1519 14.0126 26.8715 13.6505 26.4642C13.2884 26.0569 13.0812 25.469 13.0812 24.8657C13.0812 24.2624 13.2884 23.6744 13.6505 23.2671C14.0126 22.8598 14.5101 22.5795 15.3674 22.5795ZM56.519 22.5795C57.3763 22.5795 57.8738 22.8598 58.2359 23.2671C58.5979 23.6744 58.8052 24.2624 58.8052 24.8657C58.8052 25.469 58.5979 26.0569 58.2359 26.4642C57.8738 26.8715 57.3763 27.1519 56.519 27.1519C55.6617 27.1519 55.1642 26.8715 54.8021 26.4642C54.4401 26.0569 54.2328 25.469 54.2328 24.8657C54.2328 24.2624 54.4401 23.6744 54.8021 23.2671C55.1642 22.8598 55.6617 22.5795 56.519 22.5795ZM35.9432 34.0105C36.8005 34.0105 37.298 34.2908 37.6601 34.6981C38.0221 35.1054 38.2294 35.6934 38.2294 36.2967C38.2294 36.9 38.0221 37.4879 37.6601 37.8952C37.298 38.3025 36.8005 38.5829 35.9432 38.5829C35.0859 38.5829 34.5884 38.3025 34.2263 37.8952C33.8643 37.4879 33.657 36.9 33.657 36.2967C33.657 35.6934 33.8643 35.1054 34.2263 34.6981C34.5884 34.2908 35.0859 34.0105 35.9432 34.0105ZM15.3674 45.4415C16.2247 45.4415 16.7222 45.7218 17.0843 46.1291C17.4463 46.5364 17.6536 47.1244 17.6536 47.7277C17.6536 48.331 17.4463 48.9189 17.0843 49.3262C16.7222 49.7335 16.2247 50.0139 15.3674 50.0139C14.5101 50.0139 14.0126 49.7335 13.6505 49.3262C13.2884 48.9189 13.0812 48.331 13.0812 47.7277C13.0812 47.1244 13.2884 46.5364 13.6505 46.1291C14.0126 45.7218 14.5101 45.4415 15.3674 45.4415ZM56.519 45.4415C57.3763 45.4415 57.8738 45.7218 58.2359 46.1291C58.5979 46.5364 58.8052 47.1244 58.8052 47.7277C58.8052 48.331 58.5979 48.9189 58.2359 49.3262C57.8738 49.7335 57.3763 50.0139 56.519 50.0139C55.6617 50.0139 55.1642 49.7335 54.8021 49.3262C54.4401 48.9189 54.2328 48.331 54.2328 47.7277C54.2328 47.1244 54.4401 46.5364 54.8021 46.1291C55.1642 45.7218 55.6617 45.4415 56.519 45.4415ZM35.9097 55.7428C35.9327 55.7442 35.9558 55.745 35.9789 55.745C36.8034 55.7565 37.3056 56.0183 37.6601 56.417C38.0221 56.8243 38.2294 57.4123 38.2294 58.0156C38.2294 58.6189 38.0221 59.2068 37.6601 59.6141C37.298 60.0214 36.8005 60.3018 35.9432 60.3018C35.0859 60.3018 34.5884 60.0214 34.2263 59.6141C33.8643 59.2068 33.657 58.6189 33.657 58.0156C33.657 57.4123 33.8643 56.8243 34.2263 56.417C34.5813 56.0177 35.0827 55.7534 35.9097 55.7428Z" fill="#757470"/>
</svg>
