<svg width="72" height="72" viewBox="0 0 72 72" fill="none" xmlns="http://www.w3.org/2000/svg">
<path fill-rule="evenodd" clip-rule="evenodd" d="M42.7031 8.80877C43.9498 7.56372 46.0441 7.56423 47.2902 8.8103L50.8338 12.3539C51.2457 12.7658 51.282 13.4215 50.9181 13.8763C50.1435 14.8445 49.6826 15.9701 49.6826 17.2774C49.6826 20.2028 52.0416 22.6499 55.0552 22.6499C56.3624 22.6499 57.488 22.189 58.4562 21.4144C58.9111 21.0505 59.5667 21.0868 59.9786 21.4987L63.5222 25.0423C64.7216 26.2417 64.8334 28.3909 63.3571 29.5675L29.0006 63.924C27.754 65.1705 25.6585 65.1705 24.4119 63.924L20.8683 60.3804C20.4384 59.9505 20.4203 59.2593 20.827 58.8074C21.6633 57.8781 22.1339 56.6659 22.1339 55.3426C22.1339 52.4172 19.7749 49.97 16.7613 49.97C15.4859 49.97 14.2441 50.5214 13.2459 51.3199C12.7911 51.6837 12.1354 51.6474 11.7235 51.2356L8.17993 47.6919C6.93335 46.4454 6.93335 44.3499 8.17993 43.1033L8.18262 43.1006L42.7015 8.8103C42.7021 8.80979 42.7026 8.80928 42.7031 8.80877ZM45.6736 10.4269C45.3199 10.0731 44.6719 10.0731 44.3181 10.4269L44.3154 10.4296L9.79652 44.7199C9.79622 44.7202 9.79593 44.7205 9.79564 44.7208C9.44275 45.0747 9.44305 45.7219 9.79652 46.0754L12.6576 48.9364C13.8186 48.2041 15.2281 47.6838 16.7613 47.6838C21.0636 47.6838 24.4201 51.1808 24.4201 55.3426C24.4201 56.8431 23.9904 58.2686 23.1944 59.4732L26.0285 62.3074C26.3823 62.6611 27.0302 62.6611 27.384 62.3074L61.7913 27.9001C61.8296 27.8618 61.8705 27.8263 61.9138 27.7939C62.062 27.6827 62.1512 27.5104 62.1571 27.2915C62.1632 27.0644 62.0753 26.8286 61.9056 26.6589L59.0418 23.795C57.8958 24.5036 56.5628 24.9361 55.0552 24.9361C50.7529 24.9361 47.3964 21.4392 47.3964 17.2774C47.3964 15.7697 47.8289 14.4367 48.5375 13.2907L45.6736 10.4269Z" fill="#757470"/>
<path fill-rule="evenodd" clip-rule="evenodd" d="M35.7286 15.6689C36.175 15.2225 36.8988 15.2225 37.3452 15.6689L38.1454 16.4691C38.5918 16.9155 38.5918 17.6393 38.1454 18.0857C37.699 18.5321 36.9752 18.5321 36.5288 18.0857L35.7286 17.2855C35.2822 16.8391 35.2822 16.1153 35.7286 15.6689Z" fill="#757470"/>
<path fill-rule="evenodd" clip-rule="evenodd" d="M39.0436 19.3269C39.49 18.8805 40.2138 18.8805 40.6602 19.3269L41.3715 20.0381C41.8179 20.4845 41.8179 21.2083 41.3715 21.6547C40.9251 22.1011 40.2013 22.1011 39.7549 21.6547L39.0436 20.9435C38.5972 20.4971 38.5972 19.7733 39.0436 19.3269ZM42.5999 22.8832C43.0464 22.4368 43.7701 22.4368 44.2165 22.8832L45.6391 24.3057C46.0855 24.7521 46.0855 25.4759 45.6391 25.9223C45.1927 26.3687 44.4689 26.3687 44.0225 25.9223L42.5999 24.4998C42.1535 24.0534 42.1535 23.3296 42.5999 22.8832ZM46.8675 27.1508C47.3139 26.7043 48.0377 26.7043 48.4841 27.1508L49.9066 28.5733C50.353 29.0197 50.353 29.7435 49.9066 30.1899C49.4602 30.6363 48.7365 30.6363 48.29 30.1899L46.8675 28.7673C46.4211 28.3209 46.4211 27.5972 46.8675 27.1508ZM51.1351 31.4183C51.5815 30.9719 52.3053 30.9719 52.7517 31.4183L53.4629 32.1296C53.9094 32.576 53.9094 33.2998 53.4629 33.7462C53.0165 34.1926 52.2928 34.1926 51.8464 33.7462L51.1351 33.0349C50.6887 32.5885 50.6887 31.8647 51.1351 31.4183Z" fill="#757470"/>
<path fill-rule="evenodd" clip-rule="evenodd" d="M54.1325 34.0728C54.579 33.6264 55.3027 33.6264 55.7491 34.0728L56.5493 34.873C56.9957 35.3194 56.9957 36.0432 56.5493 36.4896C56.1029 36.936 55.3791 36.936 54.9327 36.4896L54.1326 35.6894C53.6861 35.243 53.6861 34.5193 54.1325 34.0728Z" fill="#757470"/>
</svg>
