<svg width="72" height="72" viewBox="0 0 72 72" fill="none" xmlns="http://www.w3.org/2000/svg">
<path d="M23.6409 61.2965C22.875 61.2965 22.4635 60.9078 22.2806 60.6678C22.0291 60.3363 21.8005 59.7647 22.1206 58.9074C22.3949 58.1644 27.2874 46.2761 29.082 41.8981H16.9538C16.1993 43.3384 14.3703 46.8706 13.9817 47.6021L13.9588 47.6593C13.4559 48.6309 12.85 48.7452 11.6612 48.7567H10.8496C10.3809 48.7567 9.95798 48.5623 9.68364 48.2308C9.40929 47.8879 9.31785 47.4535 9.40929 46.9849C9.51217 46.5162 11.3068 37.7372 11.6269 36.1826C10.9296 32.8904 9.43216 25.7804 9.38643 25.2431C9.32928 24.6373 9.5579 24.26 9.75222 24.0543C10.0151 23.7571 10.3924 23.6085 10.8496 23.6085H11.6841C12.1527 23.6199 13.4216 23.6542 13.9931 24.763C14.3703 25.4946 16.2107 29.0268 16.9652 30.4671H29.0935C27.2874 26.089 22.3949 14.2008 22.1206 13.4577C21.8005 12.6004 22.0291 12.0289 22.2806 11.6974C22.4864 11.4345 22.955 11.0001 23.8581 11.0801C24.2467 11.1144 25.5156 11.2401 26.5444 11.3544C27.756 11.4916 28.2704 12.1317 28.5448 12.4747L28.5905 12.5318C28.8077 12.7947 40.4445 27.6436 42.6621 30.4671H59.3628C64.3924 30.4671 66.53 34.5594 66.53 36.1826C66.53 37.8058 64.4038 41.8981 59.3742 41.8981H42.6621C40.4445 44.7215 28.8077 59.5704 28.5905 59.8333L28.5448 59.8905C28.2704 60.2334 27.756 60.885 26.5444 61.0107C25.5156 61.125 24.2467 61.2508 23.8581 61.285C23.7781 61.2965 23.7095 61.2965 23.6409 61.2965ZM15.5706 39.6119H32.4999L31.8483 41.1893C29.665 46.5048 25.7328 56.0839 24.5782 58.9303C25.1041 58.8845 25.7328 58.8159 26.2929 58.7474C26.5558 58.7131 26.5901 58.6788 26.7501 58.473L26.8073 58.393C27.0359 58.1072 36.3179 46.2647 41.1989 40.0462L41.5418 39.6119H59.3513C62.9178 39.6119 64.2209 36.7884 64.2209 36.1826C64.2095 35.5767 62.9064 32.7533 59.3399 32.7533H41.5533L41.2103 32.3189C36.3407 26.1004 27.0588 14.2579 26.8187 13.9721L26.7616 13.8921C26.6015 13.6864 26.5672 13.6521 26.3043 13.6178C25.7442 13.5606 25.1041 13.492 24.5897 13.4349C25.7442 16.2812 29.6765 25.8604 31.8598 31.1758L32.5113 32.7533H15.5706L15.2505 32.136C15.2505 32.136 12.6328 27.1064 12.0156 25.929C11.9698 25.9175 11.9127 25.9175 11.8212 25.9061C12.2213 27.9065 13.2272 32.7533 13.9017 35.9425L13.9474 36.1711L13.9017 36.3998C13.8331 36.7541 12.3814 43.7956 11.8327 46.459C11.8898 46.459 11.947 46.459 11.9927 46.459C12.5871 45.3159 15.2391 40.2291 15.2391 40.2291L15.5706 39.6119Z" fill="#757470"/>
</svg>
