<svg width="14" height="33" viewBox="0 0 14 33" fill="none" xmlns="http://www.w3.org/2000/svg">
<path d="M7.00003 0.669922C5.10003 0.669922 3.54549 2.23514 3.54549 4.14818C3.54549 6.06123 5.10003 7.62644 7.00003 7.62644C8.90003 7.62644 10.4546 6.06123 10.4546 4.14818C10.4546 2.23514 8.90003 0.669922 7.00003 0.669922ZM7.00003 2.06123C8.15245 2.06123 9.07276 2.98786 9.07276 4.14818C9.07276 5.30851 8.15245 6.23514 7.00003 6.23514C5.84762 6.23514 4.92731 5.30851 4.92731 4.14818C4.92731 2.98786 5.84762 2.06123 7.00003 2.06123ZM7.00003 8.3221C3.19194 8.3221 0.0909424 11.4444 0.0909424 15.2786V22.0096L2.52262 22.9879L3.02731 32.6699H10.9728L11.4774 22.9879L13.9091 22.0096V15.2786C13.9091 11.4444 10.8081 8.3221 7.00003 8.3221ZM7.00003 9.7134C10.0605 9.7134 12.5273 12.1971 12.5273 15.2786V21.0694L10.1442 22.0286L9.66111 31.2786H4.33895L3.85586 22.0286L1.47276 21.0694V15.2786C1.47276 12.1971 3.93952 9.7134 7.00003 9.7134Z" fill="#BCBAB8"/>
</svg>
