<svg width="72" height="72" viewBox="0 0 72 72" fill="none" xmlns="http://www.w3.org/2000/svg">
<path fill-rule="evenodd" clip-rule="evenodd" d="M13.0812 33.1212C13.0812 21.6173 22.4069 12.2916 33.9108 12.2916C39.8237 12.2916 44.8909 14.7914 48.6624 17.9828C51.7559 20.6006 53.89 23.6077 54.8963 25.9391C54.1056 26.0714 52.9186 26.2446 51.29 26.4185C47.874 26.7833 42.5167 27.1512 34.8003 27.1516C33.8167 26.4139 32.6147 26.0085 31.3708 26.0085C29.855 26.0085 28.4012 26.6106 27.3294 27.6825C26.2575 28.7544 25.6553 30.2081 25.6553 31.724C25.6553 33.2398 26.2575 34.6936 27.3294 35.7654C28.1281 36.5642 29.139 37.1021 30.2295 37.3244C30.257 37.3489 30.2968 37.3844 30.3489 37.4301C30.453 37.5217 30.6058 37.6546 30.8048 37.8237C31.2028 38.1619 31.7859 38.6451 32.5343 39.2325C34.0306 40.407 36.1909 42.0004 38.8566 43.6849C43.8442 46.8364 50.6531 50.3396 58.2257 51.98C57.8941 52.5529 57.4373 53.2819 56.8466 54.0958C55.4587 56.008 53.3489 58.3658 50.4092 60.279C48.736 60.1264 46.1025 59.3915 42.8917 58.2495C39.4928 57.0405 35.5777 55.4243 31.7256 53.7241C24.4099 50.4954 17.3988 46.9987 14.6708 45.4757C14.631 45.3215 14.5827 45.1291 14.528 44.9018C14.368 44.2373 14.1536 43.2756 13.9388 42.0979C13.5087 39.7383 13.0812 36.5322 13.0812 33.1212ZM61.0914 51.1316L61.0913 51.1096L61.0906 50.977C61.0898 50.8612 61.0881 50.6914 61.0848 50.4728C61.0781 50.0358 61.0647 49.4035 61.0378 48.6177C60.984 47.0469 60.8763 44.8592 60.6601 42.3897C60.2324 37.5051 59.3718 31.4046 57.6112 26.8074C56.8469 23.7894 54.1526 19.6338 50.1392 16.2376C46.0618 12.7873 40.4896 10.0054 33.9108 10.0054C21.1443 10.0054 10.795 20.3547 10.795 33.1212C10.795 36.7116 11.2437 40.0617 11.6897 42.508C11.9131 43.7333 12.1368 44.737 12.3053 45.437C12.3896 45.7872 12.4602 46.0617 12.5102 46.2503C12.5352 46.3446 12.5551 46.4175 12.5689 46.4677L12.5851 46.5257L12.5896 46.5417L12.591 46.5463L12.5915 46.5484C12.5916 46.5486 12.5917 46.5488 13.6905 46.2337L12.5917 46.5488C12.6732 46.8332 12.8619 47.0749 13.118 47.2231C15.5935 48.6553 23.0558 52.3967 30.8025 55.8157C34.6813 57.5276 38.653 59.1683 42.1256 60.4035C45.5537 61.6228 48.6304 62.4979 50.6573 62.5869C50.8892 62.5971 51.1186 62.5365 51.3151 62.4131C54.7304 60.2697 57.1417 57.5814 58.6968 55.4386C59.4758 54.3653 60.0445 53.4226 60.4208 52.7431C60.6091 52.4032 60.7496 52.1285 60.8444 51.9355C60.8919 51.839 60.9279 51.7628 60.9529 51.709C60.9654 51.6821 60.9751 51.6609 60.9821 51.6454L60.9833 51.6426C61.0079 51.5901 61.0288 51.5351 61.0454 51.478C61.0521 51.455 61.0581 51.4318 61.0634 51.4084C61.0711 51.3741 61.0773 51.3395 61.0818 51.3047C61.0895 51.2465 61.0926 51.1887 61.0914 51.1316ZM58.784 49.7616C51.5433 48.2066 44.9614 44.838 40.0779 41.7522C37.4895 40.1166 35.3929 38.5699 33.9459 37.4341C33.7731 37.2986 33.6097 37.1689 33.4558 37.0456C34.1823 36.761 34.8499 36.3279 35.4123 35.7654C36.4842 34.6936 37.0863 33.2398 37.0863 31.724C37.0863 30.927 36.9199 30.1471 36.6062 29.4309C43.4379 29.3785 48.3052 29.0365 51.5327 28.6918C53.2865 28.5045 54.5564 28.3164 55.3946 28.1735C55.4893 28.1574 55.5786 28.1418 55.6623 28.1269C57.1808 32.356 57.9745 37.9284 58.3826 42.5891C58.5945 45.0093 58.7002 47.1554 58.7529 48.6959C58.7665 49.0937 58.7766 49.4508 58.784 49.7616ZM28.946 29.2991C29.5891 28.656 30.4613 28.2947 31.3708 28.2947C32.2803 28.2947 33.1526 28.656 33.7957 29.2991C34.4388 29.9422 34.8001 30.8145 34.8001 31.724C34.8001 32.6335 34.4388 33.5057 33.7957 34.1489C33.1526 34.792 32.2803 35.1533 31.3708 35.1533C30.4613 35.1533 29.5891 34.792 28.946 34.1489C28.3028 33.5057 27.9415 32.6335 27.9415 31.724C27.9415 30.8145 28.3028 29.9422 28.946 29.2991ZM31.3708 30.0095C30.9161 30.0095 30.48 30.1902 30.1584 30.5117C29.8368 30.8333 29.6562 31.2694 29.6562 31.7242C29.6562 32.1789 29.8368 32.615 30.1584 32.9366C30.48 33.2582 30.9161 33.4388 31.3708 33.4388C31.8256 33.4388 32.2617 33.2582 32.5833 32.9366C32.9048 32.615 33.0855 32.1789 33.0855 31.7242C33.0855 31.2694 32.9048 30.8333 32.5833 30.5117C32.2617 30.1902 31.8256 30.0095 31.3708 30.0095Z" fill="#757470"/>
</svg>
