<svg width="72" height="72" viewBox="0 0 72 72" fill="none" xmlns="http://www.w3.org/2000/svg">
<path fill-rule="evenodd" clip-rule="evenodd" d="M19.1528 14.4989C20.4661 11.3022 24.6258 7.52039 31.4454 7.52039C33.1191 7.52039 34.7045 7.87473 35.7854 9.25621C35.8683 9.36214 35.9468 9.47253 36.0212 9.58739C36.0956 9.47253 36.1742 9.36214 36.2571 9.25621C37.338 7.87473 38.9234 7.52039 40.5971 7.52039C47.4167 7.52039 51.5764 11.3022 52.8896 14.4989C56.4176 15.1741 59.5466 17.6222 61.1578 21.3239C62.8147 25.1308 62.8348 30.165 60.2591 35.8951C61.85 37.8351 62.6044 40.48 62.1546 43.0134C61.7001 45.5737 60.0355 47.922 56.9901 49.2982C57.5409 50.6714 57.7808 51.9248 57.7146 53.0608C57.6288 54.5343 57.0312 55.7308 56.0893 56.6392C54.4665 58.2042 51.9239 58.8287 49.4463 58.9409C48.6591 61.1073 47.1156 62.5199 45.51 63.3893C43.7307 64.3526 41.8209 64.684 40.589 64.6754C38.697 64.6621 37.0548 63.8283 36.0232 62.4724C34.992 63.8352 33.3472 64.6754 31.4454 64.6754H31.4346C30.3088 64.6754 28.4045 64.6754 26.622 64.0236C24.9608 63.4161 23.3904 62.2349 22.5926 60.0677C19.9475 59.8493 17.4138 58.6281 15.8535 56.6721C14.2816 54.7015 13.7783 52.0795 14.9953 49.2712C11.9891 47.8873 10.3963 45.5452 9.97653 43.0023C9.5602 40.48 10.3138 37.8529 11.7962 35.9213C9.20817 30.1804 9.22552 25.1366 10.8848 21.324C12.4959 17.6222 15.6249 15.1741 19.1528 14.4989ZM34.8781 58.9599V15.1311C34.8781 12.5931 34.4941 11.3158 33.9849 10.665C33.5457 10.1038 32.8432 9.80659 31.4454 9.80659C25.0458 9.80659 21.7495 13.5839 21.1029 15.8374L20.894 16.5652L20.1424 16.6568C17.1645 17.0196 14.3904 18.9982 12.9811 22.2363C11.5769 25.4629 11.4931 30.0474 14.1696 35.6017L14.5068 36.3015L13.9803 36.8727C12.6227 38.3454 11.8917 40.5671 12.2322 42.63C12.5601 44.6163 13.8998 46.5708 16.95 47.5875L18.3019 48.0382L17.5687 49.2601C16.0893 51.7258 16.4689 53.7774 17.6408 55.2464C18.8765 56.7955 21.0991 57.8168 23.4471 57.8168H24.3405L24.5563 58.6836C25.0145 60.5233 26.1241 61.4072 27.4072 61.8765C28.7645 62.3728 30.287 62.3892 31.4454 62.3892C33.43 62.3892 34.8781 60.9721 34.8781 58.9599ZM37.1643 58.9599C37.1643 60.9647 38.6067 62.3752 40.6051 62.3892C41.4903 62.3954 43.0138 62.141 44.4215 61.3788C45.8021 60.6313 47.0151 59.4316 47.4861 57.5405L47.702 56.6737H48.5953C51.1576 56.6737 53.3485 56.1063 54.5022 54.9936C55.0419 54.4731 55.3808 53.8121 55.4323 52.9279C55.4856 52.0126 55.2332 50.7867 54.4315 49.1832L53.8421 48.0043L55.0925 47.5875C58.1544 46.5669 59.551 44.5998 59.9036 42.6138C60.1994 40.9475 59.7769 39.1829 58.8302 37.7971C58.6101 38.0718 58.3567 38.3538 58.0653 38.635C56.3474 40.2932 53.428 41.8134 48.5953 41.8134C47.964 41.8134 47.4522 41.3016 47.4522 40.6703C47.4522 40.039 47.964 39.5272 48.5953 39.5272C52.9074 39.5272 55.2349 38.1896 56.4776 36.9901C57.1111 36.3786 57.4931 35.7739 57.714 35.3344C57.8245 35.1147 57.8942 34.9371 57.9343 34.8225C57.9544 34.7652 57.967 34.7239 57.9736 34.7013C57.9764 34.6914 57.9781 34.6852 57.9788 34.6826C58.0653 34.3294 58.3078 34.0546 58.6156 33.9143C60.5185 29.1161 60.321 25.1301 59.0615 22.2363C57.6521 18.9982 54.878 17.0196 51.9001 16.6568L51.1484 16.5652L50.9396 15.8374C50.293 13.5839 46.9966 9.80659 40.5971 9.80659C39.1992 9.80659 38.4967 10.1038 38.0576 10.665C37.5484 11.3158 37.1643 12.5931 37.1643 15.1311V58.9599ZM45.166 21.2376C45.7974 21.2376 46.3091 21.7494 46.3091 22.3807C46.3091 24.0356 48.0836 28.0962 54.3108 28.0962C54.9422 28.0962 55.4539 28.608 55.4539 29.2393C55.4539 29.8706 54.9422 30.3824 54.3108 30.3824C46.8209 30.3824 44.0229 25.2982 44.0229 22.3807C44.0229 21.7494 44.5347 21.2376 45.166 21.2376Z" fill="#757470"/>
<path fill-rule="evenodd" clip-rule="evenodd" d="M29.1558 18.9514C29.7871 18.9514 30.2989 19.4632 30.2989 20.0945C30.2989 20.958 29.9022 22.3948 28.6822 23.6169C27.4289 24.8725 25.4029 25.81 22.3041 25.81C21.6727 25.81 21.161 25.2982 21.161 24.6669C21.161 24.0356 21.6727 23.5238 22.3041 23.5238C24.9208 23.5238 26.3206 22.7467 27.0643 22.0017C27.8412 21.2234 28.0127 20.3741 28.0127 20.0945C28.0127 19.4632 28.5245 18.9514 29.1558 18.9514ZM14.4662 33.4448C15.7937 32.5216 17.7425 31.5255 20.0179 31.5255C22.4504 31.5255 24.3374 32.1497 25.627 32.7868C26.2706 33.1048 26.7649 33.4257 27.1052 33.6735C27.2755 33.7975 27.4077 33.9035 27.5011 33.9822C27.5479 34.0216 27.585 34.0541 27.6124 34.0788C27.6261 34.0911 27.6374 34.1014 27.6463 34.1096C27.6507 34.1138 27.6545 34.1173 27.6578 34.1204L27.6621 34.1245L27.664 34.1262L27.6648 34.127C27.6652 34.1274 27.6656 34.1278 26.8765 34.9548L27.6656 34.1278C28.1223 34.5636 28.1393 35.2872 27.7035 35.7439C27.2692 36.1991 26.5491 36.2175 26.0921 35.7863C26.091 35.7853 26.0885 35.783 26.0845 35.7794C26.0747 35.7706 26.0559 35.754 26.0285 35.7309C25.9734 35.6846 25.8836 35.612 25.7595 35.5216C25.5111 35.3408 25.1276 35.0901 24.6143 34.8365C23.5903 34.3306 22.048 33.8117 20.0179 33.8117C18.3998 33.8117 16.9096 34.5302 15.7714 35.3217C15.2114 35.7112 14.7606 36.1017 14.4516 36.3934C14.2976 36.5387 14.1804 36.658 14.1038 36.7385C14.0656 36.7786 14.0377 36.809 14.0205 36.8279C14.0119 36.8373 14.0061 36.8439 14.003 36.8474L14.0021 36.8483C14.0019 36.8485 14.0018 36.8487 14.0016 36.8488C14.0015 36.849 14.0014 36.8491 14.0013 36.8493C14.0012 36.8494 14.0011 36.8495 14.001 36.8496C14.0009 36.8497 14.0008 36.8498 14.0007 36.8499L14.0005 36.8502C13.5858 37.3247 12.865 37.3741 12.3894 36.9601C11.9132 36.5457 11.8631 35.8236 12.2776 35.3474L13.1398 36.0979C12.2776 35.3474 12.2778 35.3471 12.2781 35.3468L12.28 35.3446L12.2836 35.3406C12.2863 35.3374 12.2898 35.3335 12.294 35.3287C12.3025 35.3192 12.3138 35.3065 12.3281 35.2909C12.3565 35.2595 12.3965 35.2162 12.4475 35.1626C12.5494 35.0555 12.6957 34.9069 12.8824 34.7307C13.2547 34.3794 13.7934 33.9126 14.4662 33.4448ZM18.8765 42.7689C18.9801 42.1462 19.5689 41.7253 20.1917 41.8289C24.0775 42.4752 26.0819 44.7855 27.0646 47.0784C28.0129 49.2909 28.0127 51.4768 28.0127 52.0871V52.1001C28.0127 52.7315 27.5009 53.2432 26.8696 53.2432C26.2383 53.2432 25.7265 52.7315 25.7265 52.1001C25.7265 51.5498 25.7228 49.7511 24.9633 47.9791C24.2314 46.2715 22.8031 44.5809 19.8166 44.0841C19.1938 43.9805 18.7729 43.3917 18.8765 42.7689ZM42.8799 48.672C43.5112 48.672 44.023 49.1838 44.023 49.8151C44.023 51.9036 44.5413 53.3553 45.3539 54.4001C46.1743 55.4549 47.382 56.2074 48.9568 56.7323C49.5558 56.932 49.8794 57.5793 49.6798 58.1783C49.4802 58.7772 48.8328 59.1009 48.2339 58.9012C46.3794 58.2831 44.7294 57.3209 43.5493 55.8037C42.3616 54.2766 41.7368 52.299 41.7368 49.8151C41.7368 49.1838 42.2485 48.672 42.8799 48.672Z" fill="#757470"/>
</svg>
